#define ac_width 16
#define ac_height 16
static unsigned char ac_bits[] = {
   0x00, 0x00, 0x00, 0x00, 0x00, 0x00, 0x00, 0x07, 0x80, 0x04, 0x80, 0x3c,
   0x60, 0x3c, 0x7c, 0x04, 0x7c, 0x04, 0x7c, 0x04, 0x60, 0x3c, 0x80, 0x3c,
   0x80, 0x04, 0x00, 0x07, 0x00, 0x00, 0x00, 0x00 };
